# xmcd CD database file
#
# Track frame offsets:
#	150
#	25199
#	40012
#	61307
#	84820
#	97158
#	107398
#	132938
#	146360
#	170586
#	195108
#	225370
#
# Disc length: 3371 seconds
#
# Revision: 2
# Processed by: cddbd v1.4b41PL1 Copyright (c) Steve Scherf et al.
# Submitted via: Feurio! 1.50.2ß - http://www.feurio.com
#
DISCID=870d290c
DTITLE=Robert Ross Band - Lightness ... To Dark
DYEAR=1900
DGENRE=
TTITLE0=Ninety-Nine And A Half
TTITLE1=Seventh Son
TTITLE2=Fever
TTITLE3=Let's Go Get Stoned
TTITLE4=Wine Spo-Dee-O-
TTITLE5=Chicken Shack - Loco-motive
TTITLE6=Out Of The Blue
TTITLE7=Crosscut Saw
TTITLE8=Why Don't You Do Right
TTITLE9=Nobody Knows You When You're Down And Out
TTITLE10=Chain Of Fools
TTITLE11=I'm A Man
EXTD=
EXTT0=
EXTT1=
EXTT2=
EXTT3=
EXTT4=
EXTT5=
EXTT6=
EXTT7=
EXTT8=
EXTT9=
EXTT10=
EXTT11=
PLAYORDER=
